<?xml version="1.0" encoding="UTF-8"?>
<svg id="Layer_1" data-name="Layer 1" xmlns="http://www.w3.org/2000/svg" viewBox="0 0 618.12 371.72">
  <defs>
    <style>
      .cls-1 {
        fill: #eae5dd;
      }

      .cls-2 {
        fill: #695248;
      }

      .cls-3 {
        fill: #b39d91;
      }
    </style>
  </defs>
  <path class="cls-1" d="M319.03,13.36c3.5,2.5,6.99,5.04,9.95,8.18,24.39-.58,47.55,20.77,47.85,45.39.09,1.56.19,3.12.29,4.68,11.16-1.24,23.02.31,32.51,6.68,11.16,6.54,18.29,18.87,18.74,31.76,15.97-.94,31.38,8.43,39.81,21.69,7.82,11.51,10.28,25.76,9.68,39.46-53,.24-106.01.24-159.01.02-.02-28.11.11-56.22.23-84.33-.44-24.51.04-49.02-.05-73.53ZM328.46,36.74c-.08,2.58-.15,5.16-.21,7.74,4.17-4.21,8.51-8.24,12.57-12.55-1.33-.51-2.65-1.01-3.97-1.5-2.75,2.16-5.53,4.29-8.39,6.31ZM328.19,59.12c.12,2.33.25,4.67.39,7,8.65-8.35,16.81-17.19,25.7-25.29-1.15-1.07-2.31-2.13-3.45-3.19-7.64,7.07-14.92,14.51-22.64,21.48ZM328.38,81.42c.02,2.2.04,4.4.08,6.61,6.09-6.47,12.85-12.27,18.96-18.73,5.33-5.57,11.03-10.78,16.5-16.22-.73-1.41-1.47-2.83-2.19-4.24-11.08,10.9-22.33,21.62-33.35,32.58ZM328.31,103.24c-.06,2.3-.09,4.59-.12,6.89,12.66-11.64,24.48-24.17,36.78-36.19,2.93-2.11,1.66-5.98,1.88-9.03-12.54,13.08-25.56,25.69-38.54,38.33ZM373.06,82.03c-15.23,13.86-29.33,28.95-44.57,42.81-.02,2.4-.03,4.81,0,7.22,6.09-5.09,11.38-11.04,17.09-16.55,11.97-11.27,22.89-23.65,35.29-34.47-2.56.33-5.5-.42-7.8.99ZM395.13,82.02c-16.86,16.41-33.61,32.95-50.37,49.47,1.84.35,3.68.7,5.53,1.06,8.21-7.9,16.62-15.59,24.45-23.89,8.12-8.5,17.13-16.16,25-24.9-1.52-.64-3.07-1.19-4.61-1.74ZM366.81,131.94c1.8.23,3.6.48,5.41.73,13.66-12.95,27.29-25.96,40.45-39.42-.98-1.19-1.95-2.37-2.91-3.56-14.37,14.03-29.14,27.69-42.95,42.25ZM388.5,132.77c2.09,0,4.2,0,6.3.01,7.58-7.07,14.98-14.33,22.28-21.68,2.56-1.87.98-5.22.99-7.8-9.95,9.74-19.89,19.48-29.57,29.47ZM435.43,120.21c-2.28,1.37-4.12,3.32-6.03,5.14-8.38,8.3-17.02,16.34-25.36,24.67,1.22,1.1,2.46,2.22,3.7,3.32,10.67-11.04,22-21.42,32.55-32.57-1.62-.25-3.24-.74-4.86-.56ZM415.09,160.99c2.27.02,4.56.04,6.84.05,10.39-10.68,21.19-20.98,31.81-31.44-1.18-1.05-2.35-2.1-3.52-3.14-11.5,11.72-23.74,22.7-35.13,34.53ZM436.36,161.3c2.16,0,4.35.14,6.51-.16,1.78-.9,3.15-2.39,4.56-3.76,5.01-5.23,10.23-10.26,15.48-15.26-.91-1.28-1.81-2.56-2.71-3.83-7.96,7.65-15.97,15.26-23.84,23.01ZM334.07,141.64c6.37,5.37,11.65,11.85,17.42,17.84,2.23,2.87,6.26,1.55,9.38,1.89-5.82-5.31-11.36-10.9-16.86-16.53-1.64-1.6-3.25-3.31-5.27-4.43-1.62.08-3.14.79-4.67,1.23ZM355.45,140.97c6.19,7.02,13.23,13.25,19.36,20.33l7.32-.12c-6.52-6.3-13.13-12.49-19.61-18.82-1.8-1.98-4.74-1.06-7.07-1.39ZM377.45,141.28c5.21,7.22,12.17,12.88,18.1,19.46,2.34,0,4.68,0,7.03,0-5.99-6.14-11.81-12.51-18.37-18.04-1.79-1.86-4.46-1.34-6.76-1.43ZM328.54,150.67c.05,3.47.16,6.93.27,10.4,3.48.18,6.96.32,10.45.42-3.41-3.76-6.89-7.48-10.72-10.82ZM458.06,161.16c3.27-.03,6.54-.07,9.82-.15-.14-2.87-.28-5.74-.41-8.6-2.94,3.13-6.11,6.02-9.41,8.75Z"/>
  <path class="cls-1" d="M301.49,21.27c3.28-2.4,6.35-5.09,9.88-7.15.35,52.38.45,104.76-.02,157.13-52.95.34-105.89-.02-158.84.09-.09-9.18.3-18.55,3.58-27.24,6.56-19.22,25.06-35.23,46.02-34.77.72-12.72,7.97-24.76,18.91-31.29,9.59-6.3,21.39-7.13,32.54-6.52-.69-11.45,2.97-22.94,10.18-31.85,9.1-11.2,23.18-18.63,37.75-18.4ZM290.02,31.94c4.12,4.33,8.43,8.49,12.44,12.93-.12-2.67-.22-5.33-.3-8-2.85-2-5.62-4.11-8.3-6.31-1.29.46-2.56.92-3.84,1.38ZM276.42,40.34c8.5,8.76,17.35,17.16,25.95,25.82-.29-2.71,1.04-6.15-1.39-8.19-7.1-6.75-14.05-13.66-21.12-20.45-1.14.94-2.3,1.88-3.44,2.82ZM269.24,48.91c-.73,1.49-1.45,3-2.17,4.5,12,11.26,23.34,23.19,35.09,34.72.04-2.38.1-4.75.16-7.13-11.13-10.59-21.92-21.53-33.08-32.09ZM263.6,64.8c.45,2.85-.82,6.65,1.85,8.7,12.38,12.03,24.32,24.51,36.74,36.49-.02-2.37-.03-4.74-.04-7.1-13.06-12.48-25.74-25.36-38.55-38.09ZM250.35,81.06c15.04,15.46,30.69,30.33,45.84,45.67,1.73,1.89,3.77,3.47,6.2,4.34-.12-2.08-.24-4.14-.37-6.2-15.13-13.16-28.46-28.25-43.35-41.66-2.14-2.38-5.44-2.01-8.32-2.15ZM235.39,82.25c-1.83.49-3.67.98-5.49,1.48,17.14,15.7,33.05,32.69,49.91,48.69,1.96-.27,3.91-.53,5.88-.77-16.5-16.74-33.47-33-50.3-49.4ZM217.96,93.1c6,7.61,13.68,13.61,20.48,20.45,6.26,6.2,12.6,12.33,18.7,18.69,2.08-.03,4.17-.07,6.26-.11-5.71-7.11-12.65-13.12-19.03-19.62-8.13-7.14-15.42-15.14-23.42-22.41-1,.99-2,2-2.99,3ZM212.43,103.56c-.13,2.02-.25,4.06-.36,6.1,7.57,7.17,14.87,14.63,22.36,21.88,1.86,2.08,4.9.98,7.32,1.27-9.45-10.07-19.32-19.74-29.32-29.25ZM190.05,120.67c11.17,10.97,22.19,22.09,33.23,33.2,1.1-1.13,2.22-2.24,3.33-3.35-10.45-10.43-20.73-21.04-31.57-31.07-1.67.4-3.33.81-4.99,1.22ZM177.03,129.3c10.46,10.8,21.09,21.45,31.76,32.05,2.35-.07,4.7-.15,7.05-.22-11.63-10.8-22.52-22.36-34.22-33.08-1.46-1.59-3.19.7-4.59,1.25ZM170.29,138.29c-.83,1.23-1.64,2.49-2.46,3.73,6.12,6.73,12.92,12.79,19.28,19.28,2.34,0,4.67-.04,7.02-.06-8.28-7.31-15.79-15.41-23.84-22.95ZM228.65,160.84c2.65.04,5.89,1.03,7.83-1.41,5.69-5.83,11.25-11.8,16.68-17.87l-5.28-.51c-6.65,6.35-13.09,12.94-19.23,19.79ZM269.04,141.06c-6.66,6.74-13.65,13.15-20.2,20,2.34-.11,4.69-.21,7.05-.29,6.43-6.47,12.96-12.85,19.13-19.59-2-.05-3.99-.08-5.98-.12ZM270.11,161.2c2.32.01,4.66.03,7,.04,6.12-7.03,13.43-12.87,19.51-19.94-1.81-.25-3.6-.5-5.4-.74-7.12,6.8-14.38,13.45-21.11,20.64ZM291.3,161.34c3.46-.14,6.92-.29,10.38-.54.13-3.34.3-6.68.45-10.02-3.61,3.52-7.13,7.13-10.83,10.56ZM162.87,152.45c-.01,2.95.08,5.89.22,8.84,3.19.08,6.38.22,9.57.43-3.22-3.14-6.3-6.42-9.79-9.27Z"/>
  <g>
    <path class="cls-3" d="M315.36,0c5.63,4.2,10.91,8.86,16.57,13.02,3.25,1.54,7.05,1.33,10.48,2.38,15.75,4.29,29.97,15.27,36.84,30.25,2.7,5.73,4.4,11.88,5.33,18.14,15.75-.24,32.06,6.17,41.74,18.93,4.6,5.46,7.71,12.07,8.87,19.12,22.92,3.51,41.97,21.97,47.94,44.1,3.21,10.72,2.84,22,2.65,33.06-25.26.39-50.52-.09-75.78.12-88.49.06-176.98-.12-265.48-.03.01-8.8-.41-17.68,1.23-26.38,2.32-12.1,7.27-24.1,16.18-32.85,8.47-9.63,20.3-15.91,32.81-18.41,3.48-13.48,12.71-25.33,25.14-31.67,7.86-4.32,16.84-5.97,25.72-6.35,2.5-23.82,21.94-44.57,45.47-48.81,2.74-.6,5.88-.44,8.15-2.34,5.36-4.11,10.7-8.27,16.14-12.28ZM319.03,13.36c.09,24.51-.39,49.02.05,73.53-.12,28.11-.25,56.22-.23,84.33,53,.22,106.01.22,159.01-.02.6-13.7-1.86-27.95-9.68-39.46-8.43-13.26-23.84-22.63-39.81-21.69-.45-12.89-7.58-25.22-18.74-31.76-9.49-6.37-21.35-7.92-32.51-6.68-.1-1.56-.2-3.12-.29-4.68-.3-24.62-23.46-45.97-47.85-45.39-2.96-3.14-6.45-5.68-9.95-8.18ZM301.49,21.27c-14.57-.23-28.65,7.2-37.75,18.4-7.21,8.91-10.87,20.4-10.18,31.85-11.15-.61-22.95.22-32.54,6.52-10.94,6.53-18.19,18.57-18.91,31.29-20.96-.46-39.46,15.55-46.02,34.77-3.28,8.69-3.67,18.06-3.58,27.24,52.95-.11,105.89.25,158.84-.09.47-52.37.37-104.75.02-157.13-3.53,2.06-6.6,4.75-9.88,7.15Z"/>
    <path class="cls-3" d="M290.02,31.94c1.28-.46,2.55-.92,3.84-1.38,2.68,2.2,5.45,4.31,8.3,6.31.08,2.67.18,5.33.3,8-4.01-4.44-8.32-8.6-12.44-12.93Z"/>
    <path class="cls-3" d="M328.46,36.74c2.86-2.02,5.64-4.15,8.39-6.31,1.32.49,2.64.99,3.97,1.5-4.06,4.31-8.4,8.34-12.57,12.55.06-2.58.13-5.16.21-7.74Z"/>
    <path class="cls-3" d="M276.42,40.34c1.14-.94,2.3-1.88,3.44-2.82,7.07,6.79,14.02,13.7,21.12,20.45,2.43,2.04,1.1,5.48,1.39,8.19-8.6-8.66-17.45-17.06-25.95-25.82Z"/>
    <path class="cls-3" d="M328.19,59.12c7.72-6.97,15-14.41,22.64-21.48,1.14,1.06,2.3,2.12,3.45,3.19-8.89,8.1-17.05,16.94-25.7,25.29-.14-2.33-.27-4.67-.39-7Z"/>
    <path class="cls-3" d="M269.24,48.91c11.16,10.56,21.95,21.5,33.08,32.09-.06,2.38-.12,4.75-.16,7.13-11.75-11.53-23.09-23.46-35.09-34.72.72-1.5,1.44-3.01,2.17-4.5Z"/>
    <path class="cls-3" d="M328.38,81.42c11.02-10.96,22.27-21.68,33.35-32.58.72,1.41,1.46,2.83,2.19,4.24-5.47,5.44-11.17,10.65-16.5,16.22-6.11,6.46-12.87,12.26-18.96,18.73-.04-2.21-.06-4.41-.08-6.61Z"/>
    <path class="cls-3" d="M328.31,103.24c12.98-12.64,26-25.25,38.54-38.33-.22,3.05,1.05,6.92-1.88,9.03-12.3,12.02-24.12,24.55-36.78,36.19.03-2.3.06-4.59.12-6.89Z"/>
    <path class="cls-3" d="M263.6,64.8c12.81,12.73,25.49,25.61,38.55,38.09.01,2.36.02,4.73.04,7.1-12.42-11.98-24.36-24.46-36.74-36.49-2.67-2.05-1.4-5.85-1.85-8.7Z"/>
    <path class="cls-3" d="M250.35,81.06c2.88.14,6.18-.23,8.32,2.15,14.89,13.41,28.22,28.5,43.35,41.66.13,2.06.25,4.12.37,6.2-2.43-.87-4.47-2.45-6.2-4.34-15.15-15.34-30.8-30.21-45.84-45.67Z"/>
    <path class="cls-3" d="M373.06,82.03c2.3-1.41,5.24-.66,7.8-.99-12.4,10.82-23.32,23.2-35.29,34.47-5.71,5.51-11,11.46-17.09,16.55-.02-2.41-.01-4.82,0-7.22,15.24-13.86,29.34-28.95,44.57-42.81Z"/>
    <path class="cls-3" d="M235.39,82.25c16.83,16.4,33.8,32.66,50.3,49.4-1.97.24-3.92.5-5.88.77-16.86-16-32.77-32.99-49.91-48.69,1.82-.5,3.66-.99,5.49-1.48Z"/>
    <path class="cls-3" d="M395.13,82.02c1.54.55,3.09,1.1,4.61,1.74-7.87,8.74-16.88,16.4-25,24.9-7.83,8.3-16.24,15.99-24.45,23.89-1.85-.36-3.69-.71-5.53-1.06,16.76-16.52,33.51-33.06,50.37-49.47Z"/>
    <path class="cls-3" d="M366.81,131.94c13.81-14.56,28.58-28.22,42.95-42.25.96,1.19,1.93,2.37,2.91,3.56-13.16,13.46-26.79,26.47-40.45,39.42-1.81-.25-3.61-.5-5.41-.73Z"/>
    <path class="cls-3" d="M217.96,93.1c.99-1,1.99-2.01,2.99-3,8,7.27,15.29,15.27,23.42,22.41,6.38,6.5,13.32,12.51,19.03,19.62-2.09.04-4.18.08-6.26.11-6.1-6.36-12.44-12.49-18.7-18.69-6.8-6.84-14.48-12.84-20.48-20.45Z"/>
    <path class="cls-3" d="M212.43,103.56c10,9.51,19.87,19.18,29.32,29.25-2.42-.29-5.46.81-7.32-1.27-7.49-7.25-14.79-14.71-22.36-21.88.11-2.04.23-4.08.36-6.1Z"/>
    <path class="cls-3" d="M388.5,132.77c9.68-9.99,19.62-19.73,29.57-29.47-.01,2.58,1.57,5.93-.99,7.8-7.3,7.35-14.7,14.61-22.28,21.68-2.1-.01-4.21-.01-6.3-.01Z"/>
    <path class="cls-3" d="M190.05,120.67c1.66-.41,3.32-.82,4.99-1.22,10.84,10.03,21.12,20.64,31.57,31.07-1.11,1.11-2.23,2.22-3.33,3.35-11.04-11.11-22.06-22.23-33.23-33.2Z"/>
    <path class="cls-3" d="M435.43,120.21c1.62-.18,3.24.31,4.86.56-10.55,11.15-21.88,21.53-32.55,32.57-1.24-1.1-2.48-2.22-3.7-3.32,8.34-8.33,16.98-16.37,25.36-24.67,1.91-1.82,3.75-3.77,6.03-5.14Z"/>
    <path class="cls-3" d="M415.09,160.99c11.39-11.83,23.63-22.81,35.13-34.53,1.17,1.04,2.34,2.09,3.52,3.14-10.62,10.46-21.42,20.76-31.81,31.44-2.28-.01-4.57-.03-6.84-.05Z"/>
    <path class="cls-3" d="M177.03,129.3c1.4-.55,3.13-2.84,4.59-1.25,11.7,10.72,22.59,22.28,34.22,33.08-2.35.07-4.7.15-7.05.22-10.67-10.6-21.3-21.25-31.76-32.05Z"/>
    <path class="cls-3" d="M170.29,138.29c8.05,7.54,15.56,15.64,23.84,22.95-2.35.02-4.68.05-7.02.06-6.36-6.49-13.16-12.55-19.28-19.28.82-1.24,1.63-2.5,2.46-3.73Z"/>
    <path class="cls-3" d="M436.36,161.3c7.87-7.75,15.88-15.36,23.84-23.01.9,1.27,1.8,2.55,2.71,3.83-5.25,5-10.47,10.03-15.48,15.26-1.41,1.37-2.78,2.86-4.56,3.76-2.16.3-4.35.16-6.51.16Z"/>
    <path class="cls-3" d="M334.07,141.64c1.53-.44,3.05-1.15,4.67-1.23,2.02,1.12,3.63,2.83,5.27,4.43,5.5,5.63,11.04,11.22,16.86,16.53-3.12-.34-7.15.98-9.38-1.89-5.77-5.99-11.05-12.47-17.42-17.84Z"/>
    <path class="cls-3" d="M228.65,160.84c6.14-6.85,12.58-13.44,19.23-19.79l5.28.51c-5.43,6.07-10.99,12.04-16.68,17.87-1.94,2.44-5.18,1.45-7.83,1.41Z"/>
    <path class="cls-3" d="M269.04,141.06c1.99.04,3.98.07,5.98.12-6.17,6.74-12.7,13.12-19.13,19.59-2.36.08-4.71.18-7.05.29,6.55-6.85,13.54-13.26,20.2-20Z"/>
    <path class="cls-3" d="M270.11,161.2c6.73-7.19,13.99-13.84,21.11-20.64,1.8.24,3.59.49,5.4.74-6.08,7.07-13.39,12.91-19.51,19.94-2.34-.01-4.68-.03-7-.04Z"/>
    <path class="cls-3" d="M355.45,140.97c2.33.33,5.27-.59,7.07,1.39,6.48,6.33,13.09,12.52,19.61,18.82l-7.32.12c-6.13-7.08-13.17-13.31-19.36-20.33Z"/>
    <path class="cls-3" d="M377.45,141.28c2.3.09,4.97-.43,6.76,1.43,6.56,5.53,12.38,11.9,18.37,18.04-2.35,0-4.69,0-7.03,0-5.93-6.58-12.89-12.24-18.1-19.46Z"/>
    <path class="cls-3" d="M291.3,161.34c3.7-3.43,7.22-7.04,10.83-10.56-.15,3.34-.32,6.68-.45,10.02-3.46.25-6.92.4-10.38.54Z"/>
    <path class="cls-3" d="M328.54,150.67c3.83,3.34,7.31,7.06,10.72,10.82-3.49-.1-6.97-.24-10.45-.42-.11-3.47-.22-6.93-.27-10.4Z"/>
    <path class="cls-3" d="M162.87,152.45c3.49,2.85,6.57,6.13,9.79,9.27-3.19-.21-6.38-.35-9.57-.43-.14-2.95-.23-5.89-.22-8.84Z"/>
    <path class="cls-3" d="M458.06,161.16c3.3-2.73,6.47-5.62,9.41-8.75.13,2.86.27,5.73.41,8.6-3.28.08-6.55.12-9.82.15Z"/>
  </g>
  <path class="cls-2" d="M123.25,243.32c7.79-3.07,15.54-6.24,23.29-9.41.07,13.56.19,27.12.03,40.68,6.27-5.23,13.97-9.48,22.35-9.25,5.05-.03,10.14,2.39,12.9,6.69,3.08,4.67,3.15,10.5,3.25,15.9-.12,13.63-.24,27.28.31,40.9.22,4.91,4.76,7.57,8.75,9.34-11.23,0-22.48.18-33.71-.12,2.37-1.4,5.24-2.43,6.75-4.9,2.08-2.97,1.75-6.78,1.91-10.2-.06-13.02.12-26.05-.16-39.06.05-4.02-1.32-8.68-5.29-10.43-5.98-2.86-12.74.98-16.63,5.57-.7,4.58-.09,9.26-.25,13.89.17,11.68-.3,23.38.16,35.05,0,5.07,4.42,8.01,8.44,10.07-11.25.43-22.52.24-33.77.08,4.82-1.64,9.24-5.64,9.11-11.09.43-24.38.08-48.77.1-73.16.42-4.93-3.65-8.38-7.54-10.55Z"/>
  <path class="cls-2" d="M395.33,235.41c6.15-3.09,14.49.79,15.92,7.55,1.23,5.61-2.34,12.05-8.16,13.16-5.9,1.64-12.46-2.29-13.73-8.27-1.25-4.84,1.38-10.43,5.97-12.44Z"/>
  <path class="cls-2" d="M62.11,253.83c-11.72.15-23.45-.12-35.17.01-9.93.19-18.05,6.58-26.94,10.11,9.02-7.73,18.88-14.42,28.01-22.03,13.77-.05,27.55.07,41.32-.12l-7.22,12.03Z"/>
  <path class="cls-2" d="M359.33,244.53c.62-.05,1.85-.15,2.46-.2,0,7.49.12,14.99.02,22.48,6.34-.01,12.68-.01,19.03-.06-.02,1.49-.04,2.98-.05,4.49-6.23.07-12.47.1-18.7.1.11,15.87,0,31.75.05,47.63.09,3.31-.04,6.98,1.97,9.82,2.85,3.32,7.95,3.9,11.79,2.06,2.89-1.25,4.57-4.07,6.68-6.24.79,3.53-1.63,6.56-3.96,8.9-5.96,6.02-15.53,8.23-23.47,5.26-5.58-2.02-8.71-8.09-8.78-13.78-.4-17.79.22-35.59-.15-53.38-3.87.03-7.75.03-11.61-.22,4.54-5.4,11.76-7.27,16.77-12.12,4.24-3.86,6.58-9.29,7.95-14.74Z"/>
  <path class="cls-2" d="M199.04,272.66c7.96-2.37,15.65-5.51,23.3-8.71.12,3.7.2,7.41.21,11.13,6.42-5.65,14.58-10.07,23.37-9.66,5.51.01,10.89,3.25,13.38,8.18,1.95,3.8,1.99,8.18,2.02,12.36-.02,11.98,0,23.96-.02,35.94.11,3.6-.19,7.55,1.93,10.69,1.67,2.92,4.96,4.09,7.76,5.61-11.37,0-22.75.17-34.12,0,2.32-1.36,5-2.4,6.59-4.69,2.25-3.05,2.01-7.03,2.15-10.61.05-12.69.19-25.39-.1-38.07-.02-4.44-1.27-9.75-5.77-11.68-6.21-2.23-13.25,1.57-16.82,6.65-.42,13.67-.07,27.38-.14,41.07.09,4.13-.42,8.69,1.97,12.33,1.58,2.62,4.75,3.45,7.23,4.96-11.15.11-22.31.26-33.45-.08,2.31-1.43,5-2.59,6.53-4.96,2.22-3.27,1.86-7.41,2.02-11.16-.06-13.05.03-26.12-.3-39.17.03-4.75-3.68-8.31-7.74-10.13Z"/>
  <path class="cls-2" d="M23,276.88c8.98-9.62,23.88-14.14,36.41-9.43,6.83,2.4,12.72,8.87,12.05,16.46-.51,6.2-6.69,10.15-12.51,10.24-10.25.39-20.52-.03-30.77.31.57,10.38,3.83,21.29,11.88,28.34,5.94,5.45,15.17,7.01,22.52,3.63,4.37-1.81,7.59-5.34,10.98-8.5-1.01,6.08-5.11,11.06-9.5,15.14-7.74,7.21-19.67,9-29.46,5.33-9-3.29-15.78-11.26-18.79-20.22-4.69-13.72-2.75-30.32,7.19-41.3ZM35.42,273.39c-4.88,4.42-6.6,11.12-7.17,17.45,7.4-.4,14.9.45,22.23-.66,5.45-2.86,5.52-10.44,2.34-15.03-3.61-5.84-12.57-6.33-17.4-1.76Z"/>
  <path class="cls-2" d="M297.39,266.46c8.49-2.21,18.06-1.43,25.47,3.54,8.65,5.58,13.13,15.9,13.71,25.92,1.12,14.09-4.12,29.33-16.01,37.64-8.47,6.08-19.92,8.17-29.8,4.55-6.86-2.46-12.14-8.06-15.57-14.35-5.63-9.88-5.92-22.07-2.97-32.84,3.17-11.93,13.15-21.64,25.17-24.46ZM295.25,271.23c-4.98,1.29-8.18,5.94-9.52,10.67-2.56,8.69-.69,17.95,2.16,26.33,2.73,7.48,6.76,14.75,12.81,20.05,4.13,3.57,10.44,5.79,15.51,2.84,4.39-2.33,5.8-7.58,6.35-12.14,1.28-14.21-3.04-28.74-11.25-40.33-3.49-5.06-9.73-9.13-16.06-7.42Z"/>
  <path class="cls-2" d="M385.26,273.41c8.24-2.03,16.17-5.08,24.05-8.21.26,19.58.17,39.16.3,58.73,0,3.66.43,7.64,3.02,10.47,1.81,1.68,4.14,2.6,6.29,3.78-11.53-.01-23.07.06-34.6-.11,2.49-1.3,5.43-2.3,6.95-4.86,2.61-3.55,2.05-8.2,2.23-12.34-.11-11.97.05-23.94-.04-35.9.22-5.14-3.16-10.22-8.2-11.56Z"/>
  <path class="cls-2" d="M430.34,275.34c5.58-5.81,13.59-8.9,21.58-8.98,10.07-.16,20.14.13,30.21.18-.47,10.46-.11,20.92-.03,31.39.08,18.02-.36,36.03-.25,54.06.11,4.83-.57,10.33,2.64,14.39,1.64,2.47,4.5,3.53,7.03,4.83-11.56.78-23.17-.11-34.75.51,4.19-2.25,8.5-5.6,8.98-10.71,1.02-9.5,0-19.07.57-28.6-7.17,6.08-17.28,9.13-26.46,6.35-7.3-1.91-13.15-7.53-16.57-14.12-7.95-15.72-5.66-36.7,7.05-49.3ZM443.39,271.6c-4.36,1.48-7.79,5.13-9.11,9.53-3.06,9.25-.82,19.26,2.18,28.23,3.29,8.67,8.45,17.96,17.6,21.4,4.76,1.92,13.02-.6,12.17-6.82-.09-10.67.03-21.33-.02-32,.27-5.86-3.6-10.74-7.15-14.99-3.71-4.45-9.88-7.77-15.67-5.35Z"/>
  <path class="cls-2" d="M576.67,269.59c9.35-4.75,21.19-6.02,30.66-.9,6.1,3.01,10.52,10.38,8.34,17.16-1.67,5.36-7.42,8.17-12.72,8.38-10.23.39-20.48-.24-30.71.28.54,9.87,3.62,20.08,10.74,27.22,6.02,6.11,15.74,8.18,23.63,4.7,4.55-1.51,7.69-5.26,11.51-7.94-2.79,8.72-9.53,16.19-18.1,19.52-12.78,5.23-29.34.34-36.31-11.85-6.44-9.71-7.21-22.14-4.56-33.24,2.16-9.79,8.79-18.44,17.52-23.33ZM576.75,276.69c-3.01,4.12-3.66,9.35-4.24,14.28,6.86-.55,13.76-.03,20.62-.56,2.64-.12,4.57-2.4,5.46-4.71,1.93-5.8-1.21-13.26-7.27-15.03-5.5-1.54-11.5,1.39-14.57,6.02Z"/>
  <path class="cls-2" d="M486.55,266.83c8.64-.28,17.3-.11,25.94-.39.12,15.83.16,31.65.1,47.47.08,4.22-.33,8.57,1.01,12.65,3.63,10.15,21.47,5.62,20.62-4.65.01-13-.03-26.01.02-39.01-.05-3.72.17-7.86-2.27-10.95-1.77-2.76-5.03-3.73-7.84-5.01,8.55-.51,17.13-.21,25.7-.36.17,18.83-.19,37.67.27,56.49-.03,5.32,3.69,9.86,8.82,11.13-7.82,2.27-15.68,4.41-23.58,6.36-.25-3.57-.28-7.15-.27-10.73-4.79,5.04-10.98,8.97-17.98,9.88-6.11.95-13.5-.27-17.17-5.76-3.2-4.32-3.34-9.9-3.26-15.04.16-12.65.1-25.3.12-37.95-.08-3.08-.02-6.45-1.92-9.06-1.89-2.85-5.37-3.76-8.31-5.07Z"/>
  <path class="cls-2" d="M98.28,244.53c.62-.05,1.85-.15,2.46-.2,0,7.49.12,14.99.02,22.48,6.34-.01,12.68-.01,19.03-.06-.02,1.49-.04,2.98-.05,4.49-6.23.07-12.47.1-18.7.1.11,15.87,0,31.75.05,47.63.09,3.31-.04,6.98,1.97,9.82,2.85,3.32,7.95,3.9,11.79,2.06,2.89-1.25,4.57-4.07,6.68-6.24.79,3.53-1.63,6.56-3.96,8.9-5.96,6.02-15.53,8.23-23.47,5.26-5.58-2.02-8.71-8.09-8.78-13.78-.4-17.79.22-35.59-.15-53.38-3.87.03-7.75.03-11.61-.22,4.54-5.4,11.76-7.27,16.77-12.12,4.24-3.86,6.58-9.29,7.95-14.74Z"/>
</svg>